<svg width="8" height="6" viewBox="0 0 8 6" fill="none" xmlns="http://www.w3.org/2000/svg">
<path d="M2.94086 5.66634C2.88328 5.66634 2.8293 5.65632 2.77893 5.63627C2.72855 5.61655 2.68177 5.58282 2.63858 5.53509L0.781754 3.4829C0.702587 3.3954 0.664731 3.28197 0.668185 3.14261C0.671928 3.00357 0.713383 2.8903 0.79255 2.80281C0.871717 2.71531 0.972475 2.67156 1.09482 2.67156C1.21717 2.67156 1.31793 2.71531 1.3971 2.80281L2.94086 4.509L6.60054 0.464253C6.67971 0.376756 6.78234 0.333008 6.90843 0.333008C7.03423 0.333008 7.13672 0.376756 7.21589 0.464253C7.29505 0.55175 7.33464 0.665019 7.33464 0.804059C7.33464 0.943418 7.29505 1.05685 7.21589 1.14434L3.24313 5.53509C3.19995 5.58282 3.15317 5.61655 3.10279 5.63627C3.05241 5.65632 2.99843 5.66634 2.94086 5.66634Z" fill="white"/>
</svg>
