<svg width="149" height="164" viewBox="0 0 149 164" fill="none" xmlns="http://www.w3.org/2000/svg">
<path d="M139.5 158L13.9479 99.7249C10.5726 98.1582 8.88502 97.3749 7.94251 95.8984C7 94.4218 7 92.5613 7 88.8402V5" stroke="#C2C2C2" stroke-width="0.75" stroke-miterlimit="10" stroke-linecap="round"/>
<path opacity="0.5" d="M139.5 135L7 73.5" stroke="#CDD5E0" stroke-width="0.5" stroke-linejoin="round" stroke-dasharray="4 4"/>
<path opacity="0.5" d="M139.5 111.5L7 50" stroke="#CDD5E0" stroke-width="0.5" stroke-linejoin="round" stroke-dasharray="4 4"/>
<path opacity="0.5" d="M139.5 86.5L7 25" stroke="#CDD5E0" stroke-width="0.5" stroke-linejoin="round" stroke-dasharray="4 4"/>
<path d="M17.3996 107.686C17.4257 110.875 19.2908 113.814 22.1569 115.182L39.6938 123.585L41.1624 124.297C43.7822 125.549 46.8108 125.371 49.2707 123.809L68.9111 111.345C71.3645 109.788 72.8156 107.124 72.8004 104.21L72.2502 25.6035C72.241 24.0294 71.7972 22.4858 70.9591 21.1652C70.1211 19.8447 68.9199 18.7818 67.5035 18.1097L48.4875 8.99268C45.8635 7.73397 42.839 7.91897 40.3856 9.47596L20.7452 21.9401C18.2788 23.5053 16.8278 26.1696 16.8559 29.0757L16.8604 30.671C16.8604 30.671 16.8604 30.671 16.8686 30.684C16.8686 30.684 16.868 30.7116 16.8721 30.7181L16.9767 46.3792L17.3005 92.8203L17.4085 107.671L17.3996 107.686Z" fill="white" stroke="#CDD5E0" stroke-width="0.75" stroke-miterlimit="10"/>
<path opacity="0.4" d="M21.8303 110.132C21.3742 109.413 21.1148 108.561 21.1159 107.661L20.5743 30.6567C20.5687 29.961 21.0302 29.5865 21.2309 29.4591C21.4316 29.3318 21.9605 29.0778 22.594 29.3749L40.1539 37.7997C41.7447 38.5609 42.7758 40.1857 42.7954 41.9621L43.3288 118.954C43.3385 119.656 42.877 120.03 42.6763 120.158C42.4756 120.285 41.9402 120.543 41.2985 120.233L23.7616 111.83C22.947 111.448 22.2863 110.85 21.8303 110.132Z" stroke="#CDD5E0" stroke-width="0.75" stroke-miterlimit="10"/>
<path d="M50.8318 123.679C50.8289 123.683 50.8274 123.689 50.8274 123.695C50.8567 126.88 52.721 129.815 55.5846 131.182L73.1215 139.585L74.5901 140.297C77.21 141.549 80.2385 141.371 82.6984 139.809L102.339 127.345C104.792 125.788 106.243 123.124 106.228 120.21L105.678 71.6036C105.669 70.0294 105.225 68.4858 104.387 67.1653C103.549 65.8447 102.348 64.7818 100.931 64.1097L81.9152 54.9927C79.2912 53.734 76.2667 53.919 73.8133 55.476L54.1729 67.9401C51.7066 69.5053 50.2555 72.1696 50.2836 75.0757L50.2881 76.6636C50.2881 76.6684 50.2865 76.6684 50.2891 76.6726C50.2918 76.6769 50.2963 76.6867 50.2963 76.6918C50.2964 76.6948 50.2965 76.6982 50.2967 76.7017C50.2974 76.7127 50.2999 76.7239 50.2999 76.7349L50.4044 92.3792L50.7282 108.821L50.8361 123.663C50.8362 123.668 50.8347 123.674 50.8318 123.679Z" fill="white"/>
<path d="M50.8318 123.679C50.8289 123.683 50.8274 123.689 50.8274 123.695C50.8567 126.88 52.721 129.815 55.5846 131.182L73.1215 139.585L74.5901 140.297C77.21 141.549 80.2385 141.371 82.6984 139.809L102.339 127.345C104.792 125.788 106.243 123.124 106.228 120.21L105.678 71.6036C105.669 70.0294 105.225 68.4858 104.387 67.1653C103.549 65.8447 102.348 64.7818 100.931 64.1097L81.9152 54.9927C79.2912 53.734 76.2667 53.919 73.8133 55.476L54.1729 67.9401C51.7066 69.5053 50.2555 72.1696 50.2836 75.0757L50.2881 76.6636C50.2881 76.6684 50.2865 76.6684 50.2891 76.6726C50.2918 76.6769 50.2963 76.6867 50.2963 76.6918C50.2964 76.6948 50.2965 76.6982 50.2967 76.7017C50.2974 76.7127 50.2999 76.7239 50.2999 76.7349L50.4044 92.3792L50.7282 108.821L50.8361 123.663C50.8362 123.668 50.8347 123.674 50.8318 123.679Z" stroke="#266DF0" stroke-width="0.75"/>
<path opacity="0.6" d="M55.258 126.132C54.8019 125.413 54.5425 124.561 54.5436 123.661L54.002 76.6567C53.9964 75.9611 54.4579 75.5865 54.6586 75.4591C54.8593 75.3318 55.3882 75.0778 56.0218 75.375L73.5816 83.7998C75.1724 84.5609 76.2036 86.1857 76.2231 87.9622L76.7565 134.954C76.7662 135.656 76.3047 136.03 76.104 136.158C75.9033 136.285 75.3679 136.543 74.7262 136.233L57.1893 127.83C56.3747 127.448 55.714 126.85 55.258 126.132Z" stroke="#266DF0" stroke-width="0.75"/>
<path d="M87.3996 140.686C87.4257 143.875 89.2908 146.814 92.1569 148.182L109.694 156.585L111.163 157.297C113.783 158.549 116.811 158.371 119.271 156.809L138.911 144.345C141.365 142.788 142.816 140.124 142.801 137.21L142.25 58.6035C142.241 57.0294 141.797 55.4858 140.959 54.1652C140.121 52.8447 138.92 51.7818 137.504 51.1097L118.488 41.9927C115.864 40.734 112.839 40.919 110.386 42.476L90.7452 54.9401C88.2788 56.5053 86.8278 59.1696 86.8559 62.0757L86.8604 63.671C86.8604 63.671 86.8604 63.671 86.8686 63.684C86.8686 63.684 86.868 63.7116 86.8721 63.7181L86.9767 79.3792L87.3005 125.82L87.4085 140.671L87.3996 140.686Z" fill="white" stroke="#CDD5E0" stroke-width="0.75" stroke-miterlimit="10"/>
<path opacity="0.4" d="M91.8303 143.132C91.3742 142.413 91.1148 141.561 91.1159 140.661L90.5743 63.6567C90.5687 62.961 91.0302 62.5865 91.2309 62.4591C91.4316 62.3318 91.9605 62.0778 92.594 62.3749L110.154 70.7997C111.745 71.5609 112.776 73.1857 112.796 74.9621L113.329 151.954C113.339 152.656 112.877 153.03 112.677 153.158C112.476 153.285 111.941 153.543 111.299 153.233L93.7616 144.83C92.947 144.448 92.2863 143.85 91.8303 143.132Z" fill="white" stroke="#CDD5E0" stroke-width="0.75" stroke-miterlimit="10"/>
<path opacity="0.5" d="M139.5 135L127.5 129.43" stroke="#CDD5E0" stroke-width="0.5" stroke-linejoin="round" stroke-dasharray="4 4"/>
<path opacity="0.5" d="M139.5 111.5L127.5 105.93" stroke="#CDD5E0" stroke-width="0.5" stroke-linejoin="round" stroke-dasharray="4 4"/>
<path opacity="0.5" d="M139.5 86.4995L127.5 80.9297" stroke="#CDD5E0" stroke-width="0.5" stroke-linejoin="round" stroke-dasharray="4 4"/>
<path opacity="0.5" d="M60 49.5996L87 62.1317" stroke="#CDD5E0" stroke-width="0.5" stroke-linejoin="round" stroke-dasharray="4 4"/>
</svg>
